<svg xmlns="http://www.w3.org/2000/svg" fill="none" viewBox="0 0 600 600"><path fill="#E535AB" fill-rule="evenodd" d="M351.3 68.8 474.6 140q5.3-5.6 12.2-9.6a53.6 53.6 0 1 1 39.2 98.4v142.5a53.6 53.6 0 0 1 33.7 78.7 53.6 53.6 0 0 1-86.3 8.9l-122.6 70.8a53.5 53.5 0 1 1-102.1 1.7l-123.4-71.2a53.5 53.5 0 1 1-51.3-89V228.9a53.6 53.6 0 1 1 51.3-88.9l123.4-71.2A53.6 53.6 0 0 1 300 0a53.4 53.4 0 0 1 51.3 68.8m-12.9 22L462.1 162a53.4 53.4 0 0 0 38.5 66.5v142.7l-2.1.6L337 92zm-75.3 1.4L101.5 371.9l-2-.6V228.6a53 53 0 0 0 38.4-66.6l123.6-71.4zm51.8 12.6 161.5 279.7a53 53 0 0 0-15 26.1H138.6a54 54 0 0 0-15-26L285 104.9a54 54 0 0 0 29.8 0m24.6 405.7 123-71-1-3.4h-323l-.5 2 123.5 71.3a53.3 53.3 0 0 1 78 1.1" clip-rule="evenodd"/></svg>