<svg xmlns="http://www.w3.org/2000/svg" fill="none" viewBox="0 0 600 600"><g clip-path="url(#devicon-postman-icon-1-a)"><path fill="#FF6C37" d="M597.5 338a300 300 0 1 0-595-76.3 300 300 0 0 0 595 76.4"/><path fill="#fff" d="M408.3 192.6 281.7 319.2 246 283.5C370.5 159 382.8 169.8 408.3 192.6"/><path fill="#FF6C37" d="M281.7 322.2q-1.3 0-2.1-1l-36-35.6a3 3 0 0 1 0-4.2c126.6-126.6 139.8-114.6 166.5-90.6q.9.8.9 2.1t-1 2.1L283.6 321.3c-.3.6-1.2.9-1.8.9m-31.5-38.7 31.5 31.5 122-122c-22.1-19.9-37.1-25.9-153.5 90.5"/><path fill="#fff" d="M318 355.5 283.5 321l126.6-126.6c33.9 34.2-16.8 89.7-92.1 161"/><path fill="#FF6C37" d="M318 358.5q-1.3 0-2.1-1l-34.5-34.4q-.7-.8-.6-2.1t.9-2.1l126.6-126.6c1.2-1.2 3-1.2 4.2 0 7.8 7.2 12 17.4 11.7 28-.6 33.2-38.4 75.5-103.8 137.3q-1.4.9-2.4.9M287.7 321c19.2 19.5 27.3 27.3 30.3 30.3 50.4-48 99.3-97.2 99.6-131a32 32 0 0 0-7.8-21.7z"/><path fill="#fff" d="m246.6 284.4 25.5 25.5q.9.9 0 1.8-.3.4-.6.3l-52.8 11.4a5 5 0 0 1-5.7-4.2q-.3-2.4 1.2-3.9l30.6-30.6c.6-.6 1.5-.9 1.8-.3"/><path fill="#FF6C37" d="M217.8 326.4a8 8 0 0 1-7.8-8.1q.1-3.3 2.4-5.7L243 282a4.6 4.6 0 0 1 6 0l25.5 25.5c1.8 1.5 1.8 4.2 0 6q-.9.8-2 1.2l-53 11.3zm28-38.7L216.2 317q-1 1-.3 2.4t2.1.9l49.5-10.8z"/><path fill="#fff" d="M475.2 122.4a48.4 48.4 0 0 0-68.7 1.5 48.4 48.4 0 0 0 1.5 68.7 48.5 48.5 0 0 0 58.8 6.6L432.6 165z"/><path fill="#FF6C37" d="M441.6 209.1a51.6 51.6 0 1 1 35.7-88.8q.9.8.9 2.1t-1 2.1L436.9 165l31.8 31.8c1.2 1.2 1.2 3 0 4.2l-.6.6a51 51 0 0 1-26.4 7.5m0-96.9a45 45 0 0 0-45.3 45.6 45 45 0 0 0 65.7 40.5l-31.5-31.2q-1-.8-1-2 0-1.4 1-2.2l40.2-40.2a45 45 0 0 0-29.1-10.5"/><path fill="#fff" d="m476 123.3-.5-.6-43 42.3 34 34a48 48 0 0 0 9.6-75.6"/><path fill="#FF6C37" d="M466.8 202.2q-1.4 0-2.1-.9l-34.2-34.2q-1-.8-1-2 0-1.4 1-2.2l42.6-42.6c1.2-1.2 3-1.2 4.2 0l.9.6a52 52 0 0 1-9.6 80.7zm-30-37.2 30.3 30.3a45.7 45.7 0 0 0 8.1-68.4z"/><path fill="#fff" d="M413.4 198a18.5 18.5 0 0 0-26.1 0L274.2 311.1l18.9 18.9 119.7-105a18.5 18.5 0 0 0 1.8-26q-.9-.6-1.2-1"/><path fill="#FF6C37" d="M292.8 333q-1.3 0-2.1-.9l-18.9-18.9a3 3 0 0 1 0-4.2l113-113a21.4 21.4 0 0 1 30.4 0 21.4 21.4 0 0 1 0 30.2l-1 1L294.7 332q-.4.9-1.8.9M278.5 311l14.7 14.7 117.6-103.2a15.6 15.6 0 0 0 1.8-21.9 15.6 15.6 0 0 0-22-1.8q-.2.4-1.1 1z"/><path fill="#fff" d="M187.5 439.8q-1.9 1-1.5 3l5.1 21.6c1.2 3-.6 6.6-3.9 7.5a6 6 0 0 1-6.6-1.8l-33-32.7 107.7-107.7 37.2.6 25.2 25.2c-6 5-42.3 40.2-130.2 84.3"/><path fill="#FF6C37" d="M185.1 474.9c-2.4 0-4.8-1-6.3-2.7l-32.7-32.7q-.9-.8-.9-2.1t1-2.1l107.6-107.7q1-1 2.1-1l37.2.7q1.3 0 2.1.9l25.2 25.2q.9 1 .9 2.4t-1.2 2l-2.1 1.9c-31.8 27.9-75 55.8-128.7 82.5l5.1 21.3c1 3.9-.9 8-4.5 10.2q-2.6 1.3-4.8 1.2m-33-37.5 31 30.6a3 3 0 0 0 4.1 1.2c1.5-1 2.1-2.7 1.2-4.2l-5-21.6c-.7-2.7.5-5.1 3-6.3 53-26.7 95.9-54.3 127.4-81.6l-22.2-22.2-34.5-.6z"/><path fill="#fff" d="m122.1 463.2 25.8-25.8 38.4 38.4-61.2-4.2a5 5 0 0 1-4.2-5.4q0-2 1.2-3"/><path fill="#FF6C37" d="m186.3 478.5-61.5-4.2c-4.5-.3-7.5-4.2-7.2-8.7q.4-2.9 2.4-4.8l25.8-25.8c1.2-1.2 3-1.2 4.2 0l38.4 38.4q1.5 1.3.6 3.3-.9 1.8-2.7 1.8m-38.4-37-23.7 23.8c-.9.6-.9 2 0 2.7q.4.5 1.2.6l53.1 3.6zm96.9-98a3 3 0 0 1-3-3q0-1.4 1-2.1l29-29.1c1.2-1.2 3-1.2 4.2 0l18.9 18.9q1.3 1.3.9 3-.5 1.5-2.4 2l-48 10.3zm29.1-28-19.8 19.9 32.4-7z"/><path fill="#fff" d="m292.5 330.3-33 7.2a4.5 4.5 0 0 1-4.2-7.5l18.3-18.3z"/><path fill="#FF6C37" d="M259 340.5a7.4 7.4 0 0 1-7.6-7.5c0-2.1 1-4 2.1-5.4l18.3-18.3c1.2-1.2 3-1.2 4.2 0l18.9 18.9q1.3 1.3.9 3-.5 1.5-2.4 2l-33 7.3zm15-25-16.3 16.3q-.8.9-.3 1.8t1.8.9l27.6-6zm202.4-163.4a3.4 3.4 0 0 0-4.5-2c-1.8.5-2.7 2.6-2.1 4.4l.3 1a11 11 0 0 1-1.2 11.3 3.6 3.6 0 0 0 .3 4.8c1.5 1.2 3.6 1 4.8-.6a18 18 0 0 0 2.4-18.9"/></g><defs><clipPath id="devicon-postman-icon-1-a"><path fill="#fff" d="M0 0h600v600H0z"/></clipPath></defs></svg>